<?xml version="1.0" standalone="no"?>
<!DOCTYPE svg PUBLIC "-//W3C//DTD SVG 20010904//EN"
 "http://www.w3.org/TR/2001/REC-SVG-20010904/DTD/svg10.dtd">
<svg version="1.0" xmlns="http://www.w3.org/2000/svg"
 width="512.000000pt" height="512.000000pt" viewBox="0 0 512.000000 512.000000"
 preserveAspectRatio="xMidYMid meet">
<metadata>
Created by potrace 1.11, written by Peter Selinger 2001-2013
</metadata>
<g transform="translate(0.000000,512.000000) scale(0.100000,-0.100000)"
fill="#000000" stroke="none">
<path d="M4269 4974 c-81 -81 -149 -154 -152 -164 -6 -22 18 -80 33 -80 21 0
5 -20 -108 -133 -126 -127 -201 -177 -372 -250 -95 -40 -318 -122 -520 -190
-356 -121 -502 -189 -652 -303 -77 -58 -241 -187 -248 -194 -3 -3 -41 -36 -85
-74 -109 -94 -330 -318 -441 -446 -84 -98 -298 -369 -478 -608 -273 -362 -473
-544 -933 -850 -205 -137 -245 -172 -282 -251 -22 -47 -26 -70 -26 -141 0
-153 -17 -132 569 -716 439 -437 521 -515 571 -538 109 -52 251 -39 344 31 47
35 45 33 163 208 356 528 506 690 943 1022 351 266 468 360 605 483 209 187
402 393 570 610 211 273 230 311 412 840 127 372 201 547 281 665 37 53 242
265 257 265 4 0 15 -9 25 -20 10 -11 31 -20 48 -20 24 0 53 24 173 143 106
105 145 151 150 174 6 30 -5 43 -318 357 -277 279 -327 326 -352 326 -25 0
-55 -25 -177 -146z"/>
</g>
</svg>
